# xmcd CD database file
#
# Track frame offsets:
#	150
#	27215
#	51892
#	70852
#	97055
#	121965
#	158012
#	181612
#
# Disc length: 2570 seconds
#
# Revision: 0
# Processed by: cddbd v1.4PL0 Copyright (c) Steve Scherf et al.
# Submitted via: CDex 1.50beta8
#
DISCID=5f0a0808
DTITLE=Charly Antolini - Bop Dance
DYEAR=1900
DGENRE=Jazz
TTITLE0=Windmühle
TTITLE1=Seven Steps to Heaven
TTITLE2=Morgenstund' hat Gold im Mund
TTITLE3=In Without Knocking
TTITLE4=My Pretty One
TTITLE5=Salute to Monk
TTITLE6=Bop Dance
TTITLE7=This Time in a Different Way
EXTD=
EXTT0=
EXTT1=
EXTT2=
EXTT3=
EXTT4=
EXTT5=
EXTT6=
EXTT7=
PLAYORDER=
